<svg aria-roledescription="er" role="graphics-document document" viewBox="0 0 407.4666748046875 589" style="max-width: 407.467px; background-color: white;" xmlns:xlink="http://www.w3.org/1999/xlink" xmlns="http://www.w3.org/2000/svg" width="100%" id="my-svg"><style>#my-svg{font-family:"trebuchet ms",verdana,arial,sans-serif;font-size:16px;fill:#000000;}#my-svg .error-icon{fill:#552222;}#my-svg .error-text{fill:#552222;stroke:#552222;}#my-svg .edge-thickness-normal{stroke-width:2px;}#my-svg .edge-thickness-thick{stroke-width:3.5px;}#my-svg .edge-pattern-solid{stroke-dasharray:0;}#my-svg .edge-pattern-dashed{stroke-dasharray:3;}#my-svg .edge-pattern-dotted{stroke-dasharray:2;}#my-svg .marker{fill:#000000;stroke:#000000;}#my-svg .marker.cross{stroke:#000000;}#my-svg svg{font-family:"trebuchet ms",verdana,arial,sans-serif;font-size:16px;}#my-svg .entityBox{fill:#cde498;stroke:#13540c;}#my-svg .attributeBoxOdd{fill:#ffffff;stroke:#13540c;}#my-svg .attributeBoxEven{fill:#f2f2f2;stroke:#13540c;}#my-svg .relationshipLabelBox{fill:hsl(78.1578947368, 58.4615384615%, 84.5098039216%);opacity:0.7;background-color:hsl(78.1578947368, 58.4615384615%, 84.5098039216%);}#my-svg .relationshipLabelBox rect{opacity:0.5;}#my-svg .relationshipLine{stroke:#000000;}#my-svg .entityTitleText{text-anchor:middle;font-size:18px;fill:#000000;}#my-svg #MD_PARENT_START{fill:#f5f5f5!important;stroke:#000000!important;stroke-width:1;}#my-svg #MD_PARENT_END{fill:#f5f5f5!important;stroke:#000000!important;stroke-width:1;}#my-svg :root{--mermaid-font-family:"trebuchet ms",verdana,arial,sans-serif;}</style><g/><defs><marker orient="auto" markerHeight="240" markerWidth="190" refY="7" refX="0" id="MD_PARENT_START"><path d="M 18,7 L9,13 L1,7 L9,1 Z"/></marker></defs><defs><marker orient="auto" markerHeight="28" markerWidth="20" refY="7" refX="19" id="MD_PARENT_END"><path d="M 18,7 L9,13 L1,7 L9,1 Z"/></marker></defs><defs><marker orient="auto" markerHeight="18" markerWidth="18" refY="9" refX="0" id="ONLY_ONE_START"><path d="M9,0 L9,18 M15,0 L15,18" fill="none" stroke="gray"/></marker></defs><defs><marker orient="auto" markerHeight="18" markerWidth="18" refY="9" refX="18" id="ONLY_ONE_END"><path d="M3,0 L3,18 M9,0 L9,18" fill="none" stroke="gray"/></marker></defs><defs><marker orient="auto" markerHeight="18" markerWidth="30" refY="9" refX="0" id="ZERO_OR_ONE_START"><circle r="6" cy="9" cx="21" fill="white" stroke="gray"/><path d="M9,0 L9,18" fill="none" stroke="gray"/></marker></defs><defs><marker orient="auto" markerHeight="18" markerWidth="30" refY="9" refX="30" id="ZERO_OR_ONE_END"><circle r="6" cy="9" cx="9" fill="white" stroke="gray"/><path d="M21,0 L21,18" fill="none" stroke="gray"/></marker></defs><defs><marker orient="auto" markerHeight="36" markerWidth="45" refY="18" refX="18" id="ONE_OR_MORE_START"><path d="M0,18 Q 18,0 36,18 Q 18,36 0,18 M42,9 L42,27" fill="none" stroke="gray"/></marker></defs><defs><marker orient="auto" markerHeight="36" markerWidth="45" refY="18" refX="27" id="ONE_OR_MORE_END"><path d="M3,9 L3,27 M9,18 Q27,0 45,18 Q27,36 9,18" fill="none" stroke="gray"/></marker></defs><defs><marker orient="auto" markerHeight="36" markerWidth="57" refY="18" refX="18" id="ZERO_OR_MORE_START"><circle r="6" cy="18" cx="48" fill="white" stroke="gray"/><path d="M0,18 Q18,0 36,18 Q18,36 0,18" fill="none" stroke="gray"/></marker></defs><defs><marker orient="auto" markerHeight="36" markerWidth="57" refY="18" refX="39" id="ZERO_OR_MORE_END"><circle r="6" cy="18" cx="9" fill="white" stroke="gray"/><path d="M21,18 Q39,0 57,18 Q39,36 21,18" fill="none" stroke="gray"/></marker></defs><path style="stroke: gray; fill: none;" marker-start="url(#ZERO_OR_ONE_START)" marker-end="url(#ZERO_OR_MORE_END)" d="M135.53614807128906,162.28655351692527L119.0912348429362,175.73879459743773C102.64632161458333,189.19103567795017,69.75649515787761,216.0955178389751,57.2798358977787,237.88109225282088C44.803176637679805,259.6666666666667,52.73968457418775,276.3333333333333,56.70793854244172,284.6666666666667L60.676192510695685,293" class="er relationshipLine"/><path style="stroke: gray; fill: none;" marker-start="url(#ZERO_OR_MORE_START)" marker-end="url(#ZERO_OR_MORE_END)" d="M235.41831908732544,193L238.47082213982847,201.33333333333334C241.52332519233155,209.66666666666666,247.62833129733767,226.33333333333334,255.98771281818767,243C264.3470943390377,259.6666666666667,274.9608512757316,276.3333333333333,280.2677297440786,284.6666666666667L285.5746082124256,293" class="er relationshipLine"/><path style="stroke: gray; fill: none;" marker-start="url(#ZERO_OR_ONE_START)" marker-end="url(#ZERO_OR_MORE_END)" d="M121.8920665922619,293L127.19894506060888,284.6666666666667C132.50582352895586,276.3333333333333,143.11958046564982,259.6666666666667,151.47896198649983,243C159.83834350734983,226.33333333333334,165.94334961235595,209.66666666666666,168.995852664859,201.33333333333334L172.04835571736206,193" class="er relationshipLine"/><path style="stroke: gray; fill: none;" marker-start="url(#ZERO_OR_ONE_START)" marker-end="url(#ONLY_ONE_END)" d="M320.6000061035156,403L320.6000061035156,411.3333333333333C320.6000061035156,419.6666666666667,320.6000061035156,436.3333333333333,320.6000061035156,453C320.6000061035156,469.6666666666667,320.6000061035156,486.3333333333333,320.6000061035156,494.6666666666667L320.6000061035156,503" class="er relationshipLine"/><path style="stroke: gray; fill: none;" marker-start="url(#ZERO_OR_ONE_START)" marker-end="url(#ONLY_ONE_END)" d="M346.79048229399183,293L350.75873626224575,284.6666666666667C354.7269902304997,276.3333333333333,362.6634981670077,259.6666666666667,350.1868389069088,237.88109225282088C337.7101796468099,216.0955178389751,304.8203531901042,189.19103567795017,288.3754399617513,175.73879459743773L271.93052673339844,162.28655351692527" class="er relationshipLine"/><g transform="translate(268.9288330078125,503 )" id="entity-Period-2fcd5f39-5a07-5d00-9288-880ecde471c2"><rect height="66" width="103.34234619140625" y="0" x="0" class="er entityBox"/><text style="dominant-baseline: middle; text-anchor: middle; font-size: 12px;" transform="translate(51.671173095703125,12)" y="0" x="0" id="text-entity-Period-2fcd5f39-5a07-5d00-9288-880ecde471c2" class="er entityLabel">Period</text><rect height="21" width="51.671173095703125" y="24" x="0" class="er attributeBoxOdd"/><text style="dominant-baseline: middle; font-size: 10.2px;" transform="translate(5,34.5)" y="0" x="0" id="text-entity-Period-2fcd5f39-5a07-5d00-9288-880ecde471c2-attr-1-type" class="er entityLabel">nighttime</text><rect height="21" width="51.671173095703125" y="24" x="51.671173095703125" class="er attributeBoxOdd"/><text style="dominant-baseline: middle; font-size: 10.2px;" transform="translate(56.671173095703125,34.5)" y="0" x="0" id="text-entity-Period-2fcd5f39-5a07-5d00-9288-880ecde471c2-attr-1-name" class="er entityLabel">nighttime</text><rect height="21" width="51.671173095703125" y="45" x="0" class="er attributeBoxEven"/><text style="dominant-baseline: middle; font-size: 10.2px;" transform="translate(5,55.5)" y="0" x="0" id="text-entity-Period-2fcd5f39-5a07-5d00-9288-880ecde471c2-attr-2-type" class="er entityLabel">daytime</text><rect height="21" width="51.671173095703125" y="45" x="51.671173095703125" class="er attributeBoxEven"/><text style="dominant-baseline: middle; font-size: 10.2px;" transform="translate(56.671173095703125,55.5)" y="0" x="0" id="text-entity-Period-2fcd5f39-5a07-5d00-9288-880ecde471c2-attr-2-name" class="er entityLabel">daytime</text></g><g transform="translate(135.53614807128906,20 )" id="entity-product-140dbd18-82b1-5486-b49f-0cd02f6ba886"><rect height="173" width="136.39437866210938" y="0" x="0" class="er entityBox"/><text style="dominant-baseline: middle; text-anchor: middle; font-size: 12px;" transform="translate(68.19718933105469,12)" y="0" x="0" id="text-entity-product-140dbd18-82b1-5486-b49f-0cd02f6ba886" class="er entityLabel">product</text><rect height="23" width="54.113128662109375" y="24" x="0" class="er attributeBoxOdd"/><text style="dominant-baseline: middle; font-size: 10.2px;" transform="translate(5,35.5)" y="0" x="0" id="text-entity-product-140dbd18-82b1-5486-b49f-0cd02f6ba886-attr-1-type" class="er entityLabel">String</text><rect height="23" width="59.28125" y="24" x="54.113128662109375" class="er attributeBoxOdd"/><text style="dominant-baseline: middle; font-size: 10.2px;" transform="translate(59.113128662109375,35.5)" y="0" x="0" id="text-entity-product-140dbd18-82b1-5486-b49f-0cd02f6ba886-attr-1-name" class="er entityLabel">z_id</text><rect height="23" width="23" y="24" x="113.39437866210938" class="er attributeBoxOdd"/><text style="dominant-baseline: middle; font-size: 10.2px;" transform="translate(118.39437866210938,35.5)" y="0" x="0" id="text-entity-product-140dbd18-82b1-5486-b49f-0cd02f6ba886-attr-1-comment" class="er entityLabel">🗝️</text><rect height="21" width="54.113128662109375" y="47" x="0" class="er attributeBoxEven"/><text style="dominant-baseline: middle; font-size: 10.2px;" transform="translate(5,57.5)" y="0" x="0" id="text-entity-product-140dbd18-82b1-5486-b49f-0cd02f6ba886-attr-2-type" class="er entityLabel">String</text><rect height="21" width="59.28125" y="47" x="54.113128662109375" class="er attributeBoxEven"/><text style="dominant-baseline: middle; font-size: 10.2px;" transform="translate(59.113128662109375,57.5)" y="0" x="0" id="text-entity-product-140dbd18-82b1-5486-b49f-0cd02f6ba886-attr-2-name" class="er entityLabel">name</text><rect height="21" width="23" y="47" x="113.39437866210938" class="er attributeBoxEven"/><text style="dominant-baseline: middle; font-size: 10.2px;" transform="translate(118.39437866210938,57.5)" y="0" x="0" id="text-entity-product-140dbd18-82b1-5486-b49f-0cd02f6ba886-attr-2-comment" class="er entityLabel"/><rect height="21" width="54.113128662109375" y="68" x="0" class="er attributeBoxOdd"/><text style="dominant-baseline: middle; font-size: 10.2px;" transform="translate(5,78.5)" y="0" x="0" id="text-entity-product-140dbd18-82b1-5486-b49f-0cd02f6ba886-attr-3-type" class="er entityLabel">Float</text><rect height="21" width="59.28125" y="68" x="54.113128662109375" class="er attributeBoxOdd"/><text style="dominant-baseline: middle; font-size: 10.2px;" transform="translate(59.113128662109375,78.5)" y="0" x="0" id="text-entity-product-140dbd18-82b1-5486-b49f-0cd02f6ba886-attr-3-name" class="er entityLabel">price</text><rect height="21" width="23" y="68" x="113.39437866210938" class="er attributeBoxOdd"/><text style="dominant-baseline: middle; font-size: 10.2px;" transform="translate(118.39437866210938,78.5)" y="0" x="0" id="text-entity-product-140dbd18-82b1-5486-b49f-0cd02f6ba886-attr-3-comment" class="er entityLabel"/><rect height="21" width="54.113128662109375" y="89" x="0" class="er attributeBoxEven"/><text style="dominant-baseline: middle; font-size: 10.2px;" transform="translate(5,99.5)" y="0" x="0" id="text-entity-product-140dbd18-82b1-5486-b49f-0cd02f6ba886-attr-4-type" class="er entityLabel">String</text><rect height="21" width="59.28125" y="89" x="54.113128662109375" class="er attributeBoxEven"/><text style="dominant-baseline: middle; font-size: 10.2px;" transform="translate(59.113128662109375,99.5)" y="0" x="0" id="text-entity-product-140dbd18-82b1-5486-b49f-0cd02f6ba886-attr-4-name" class="er entityLabel">imageUrl</text><rect height="21" width="23" y="89" x="113.39437866210938" class="er attributeBoxEven"/><text style="dominant-baseline: middle; font-size: 10.2px;" transform="translate(118.39437866210938,99.5)" y="0" x="0" id="text-entity-product-140dbd18-82b1-5486-b49f-0cd02f6ba886-attr-4-comment" class="er entityLabel"/><rect height="21" width="54.113128662109375" y="110" x="0" class="er attributeBoxOdd"/><text style="dominant-baseline: middle; font-size: 10.2px;" transform="translate(5,120.5)" y="0" x="0" id="text-entity-product-140dbd18-82b1-5486-b49f-0cd02f6ba886-attr-5-type" class="er entityLabel">String</text><rect height="21" width="59.28125" y="110" x="54.113128662109375" class="er attributeBoxOdd"/><text style="dominant-baseline: middle; font-size: 10.2px;" transform="translate(59.113128662109375,120.5)" y="0" x="0" id="text-entity-product-140dbd18-82b1-5486-b49f-0cd02f6ba886-attr-5-name" class="er entityLabel">description</text><rect height="21" width="23" y="110" x="113.39437866210938" class="er attributeBoxOdd"/><text style="dominant-baseline: middle; font-size: 10.2px;" transform="translate(118.39437866210938,120.5)" y="0" x="0" id="text-entity-product-140dbd18-82b1-5486-b49f-0cd02f6ba886-attr-5-comment" class="er entityLabel"/><rect height="21" width="54.113128662109375" y="131" x="0" class="er attributeBoxEven"/><text style="dominant-baseline: middle; font-size: 10.2px;" transform="translate(5,141.5)" y="0" x="0" id="text-entity-product-140dbd18-82b1-5486-b49f-0cd02f6ba886-attr-6-type" class="er entityLabel">DateTime</text><rect height="21" width="59.28125" y="131" x="54.113128662109375" class="er attributeBoxEven"/><text style="dominant-baseline: middle; font-size: 10.2px;" transform="translate(59.113128662109375,141.5)" y="0" x="0" id="text-entity-product-140dbd18-82b1-5486-b49f-0cd02f6ba886-attr-6-name" class="er entityLabel">createdAt</text><rect height="21" width="23" y="131" x="113.39437866210938" class="er attributeBoxEven"/><text style="dominant-baseline: middle; font-size: 10.2px;" transform="translate(118.39437866210938,141.5)" y="0" x="0" id="text-entity-product-140dbd18-82b1-5486-b49f-0cd02f6ba886-attr-6-comment" class="er entityLabel"/><rect height="21" width="54.113128662109375" y="152" x="0" class="er attributeBoxOdd"/><text style="dominant-baseline: middle; font-size: 10.2px;" transform="translate(5,162.5)" y="0" x="0" id="text-entity-product-140dbd18-82b1-5486-b49f-0cd02f6ba886-attr-7-type" class="er entityLabel">DateTime</text><rect height="21" width="59.28125" y="152" x="54.113128662109375" class="er attributeBoxOdd"/><text style="dominant-baseline: middle; font-size: 10.2px;" transform="translate(59.113128662109375,162.5)" y="0" x="0" id="text-entity-product-140dbd18-82b1-5486-b49f-0cd02f6ba886-attr-7-name" class="er entityLabel">updatedAt</text><rect height="21" width="23" y="152" x="113.39437866210938" class="er attributeBoxOdd"/><text style="dominant-baseline: middle; font-size: 10.2px;" transform="translate(118.39437866210938,162.5)" y="0" x="0" id="text-entity-product-140dbd18-82b1-5486-b49f-0cd02f6ba886-attr-7-comment" class="er entityLabel"/></g><g transform="translate(20,293 )" id="entity-category-15b45b76-008e-5d81-8567-ac2aeaa094e1"><rect height="110" width="133.73333740234375" y="0" x="0" class="er entityBox"/><text style="dominant-baseline: middle; text-anchor: middle; font-size: 12px;" transform="translate(66.86666870117188,12)" y="0" x="0" id="text-entity-category-15b45b76-008e-5d81-8567-ac2aeaa094e1" class="er entityLabel">category</text><rect height="23" width="54.113128662109375" y="24" x="0" class="er attributeBoxOdd"/><text style="dominant-baseline: middle; font-size: 10.2px;" transform="translate(5,35.5)" y="0" x="0" id="text-entity-category-15b45b76-008e-5d81-8567-ac2aeaa094e1-attr-1-type" class="er entityLabel">String</text><rect height="23" width="56.620208740234375" y="24" x="54.113128662109375" class="er attributeBoxOdd"/><text style="dominant-baseline: middle; font-size: 10.2px;" transform="translate(59.113128662109375,35.5)" y="0" x="0" id="text-entity-category-15b45b76-008e-5d81-8567-ac2aeaa094e1-attr-1-name" class="er entityLabel">z_id</text><rect height="23" width="23" y="24" x="110.73333740234375" class="er attributeBoxOdd"/><text style="dominant-baseline: middle; font-size: 10.2px;" transform="translate(115.73333740234375,35.5)" y="0" x="0" id="text-entity-category-15b45b76-008e-5d81-8567-ac2aeaa094e1-attr-1-comment" class="er entityLabel">🗝️</text><rect height="21" width="54.113128662109375" y="47" x="0" class="er attributeBoxEven"/><text style="dominant-baseline: middle; font-size: 10.2px;" transform="translate(5,57.5)" y="0" x="0" id="text-entity-category-15b45b76-008e-5d81-8567-ac2aeaa094e1-attr-2-type" class="er entityLabel">String</text><rect height="21" width="56.620208740234375" y="47" x="54.113128662109375" class="er attributeBoxEven"/><text style="dominant-baseline: middle; font-size: 10.2px;" transform="translate(59.113128662109375,57.5)" y="0" x="0" id="text-entity-category-15b45b76-008e-5d81-8567-ac2aeaa094e1-attr-2-name" class="er entityLabel">name</text><rect height="21" width="23" y="47" x="110.73333740234375" class="er attributeBoxEven"/><text style="dominant-baseline: middle; font-size: 10.2px;" transform="translate(115.73333740234375,57.5)" y="0" x="0" id="text-entity-category-15b45b76-008e-5d81-8567-ac2aeaa094e1-attr-2-comment" class="er entityLabel"/><rect height="21" width="54.113128662109375" y="68" x="0" class="er attributeBoxOdd"/><text style="dominant-baseline: middle; font-size: 10.2px;" transform="translate(5,78.5)" y="0" x="0" id="text-entity-category-15b45b76-008e-5d81-8567-ac2aeaa094e1-attr-3-type" class="er entityLabel">DateTime</text><rect height="21" width="56.620208740234375" y="68" x="54.113128662109375" class="er attributeBoxOdd"/><text style="dominant-baseline: middle; font-size: 10.2px;" transform="translate(59.113128662109375,78.5)" y="0" x="0" id="text-entity-category-15b45b76-008e-5d81-8567-ac2aeaa094e1-attr-3-name" class="er entityLabel">createdAt</text><rect height="21" width="23" y="68" x="110.73333740234375" class="er attributeBoxOdd"/><text style="dominant-baseline: middle; font-size: 10.2px;" transform="translate(115.73333740234375,78.5)" y="0" x="0" id="text-entity-category-15b45b76-008e-5d81-8567-ac2aeaa094e1-attr-3-comment" class="er entityLabel"/><rect height="21" width="54.113128662109375" y="89" x="0" class="er attributeBoxEven"/><text style="dominant-baseline: middle; font-size: 10.2px;" transform="translate(5,99.5)" y="0" x="0" id="text-entity-category-15b45b76-008e-5d81-8567-ac2aeaa094e1-attr-4-type" class="er entityLabel">DateTime</text><rect height="21" width="56.620208740234375" y="89" x="54.113128662109375" class="er attributeBoxEven"/><text style="dominant-baseline: middle; font-size: 10.2px;" transform="translate(59.113128662109375,99.5)" y="0" x="0" id="text-entity-category-15b45b76-008e-5d81-8567-ac2aeaa094e1-attr-4-name" class="er entityLabel">updatedAt</text><rect height="21" width="23" y="89" x="110.73333740234375" class="er attributeBoxEven"/><text style="dominant-baseline: middle; font-size: 10.2px;" transform="translate(115.73333740234375,99.5)" y="0" x="0" id="text-entity-category-15b45b76-008e-5d81-8567-ac2aeaa094e1-attr-4-comment" class="er entityLabel"/></g><g transform="translate(253.73333740234375,293 )" id="entity-menu-5e57509b-aadb-550d-8ad8-8716db7f27f7"><rect height="110" width="133.73333740234375" y="0" x="0" class="er entityBox"/><text style="dominant-baseline: middle; text-anchor: middle; font-size: 12px;" transform="translate(66.86666870117188,12)" y="0" x="0" id="text-entity-menu-5e57509b-aadb-550d-8ad8-8716db7f27f7" class="er entityLabel">menu</text><rect height="23" width="54.113128662109375" y="24" x="0" class="er attributeBoxOdd"/><text style="dominant-baseline: middle; font-size: 10.2px;" transform="translate(5,35.5)" y="0" x="0" id="text-entity-menu-5e57509b-aadb-550d-8ad8-8716db7f27f7-attr-1-type" class="er entityLabel">String</text><rect height="23" width="56.620208740234375" y="24" x="54.113128662109375" class="er attributeBoxOdd"/><text style="dominant-baseline: middle; font-size: 10.2px;" transform="translate(59.113128662109375,35.5)" y="0" x="0" id="text-entity-menu-5e57509b-aadb-550d-8ad8-8716db7f27f7-attr-1-name" class="er entityLabel">z_id</text><rect height="23" width="23" y="24" x="110.73333740234375" class="er attributeBoxOdd"/><text style="dominant-baseline: middle; font-size: 10.2px;" transform="translate(115.73333740234375,35.5)" y="0" x="0" id="text-entity-menu-5e57509b-aadb-550d-8ad8-8716db7f27f7-attr-1-comment" class="er entityLabel">🗝️</text><rect height="21" width="54.113128662109375" y="47" x="0" class="er attributeBoxEven"/><text style="dominant-baseline: middle; font-size: 10.2px;" transform="translate(5,57.5)" y="0" x="0" id="text-entity-menu-5e57509b-aadb-550d-8ad8-8716db7f27f7-attr-2-type" class="er entityLabel">Period</text><rect height="21" width="56.620208740234375" y="47" x="54.113128662109375" class="er attributeBoxEven"/><text style="dominant-baseline: middle; font-size: 10.2px;" transform="translate(59.113128662109375,57.5)" y="0" x="0" id="text-entity-menu-5e57509b-aadb-550d-8ad8-8716db7f27f7-attr-2-name" class="er entityLabel">period</text><rect height="21" width="23" y="47" x="110.73333740234375" class="er attributeBoxEven"/><text style="dominant-baseline: middle; font-size: 10.2px;" transform="translate(115.73333740234375,57.5)" y="0" x="0" id="text-entity-menu-5e57509b-aadb-550d-8ad8-8716db7f27f7-attr-2-comment" class="er entityLabel"/><rect height="21" width="54.113128662109375" y="68" x="0" class="er attributeBoxOdd"/><text style="dominant-baseline: middle; font-size: 10.2px;" transform="translate(5,78.5)" y="0" x="0" id="text-entity-menu-5e57509b-aadb-550d-8ad8-8716db7f27f7-attr-3-type" class="er entityLabel">DateTime</text><rect height="21" width="56.620208740234375" y="68" x="54.113128662109375" class="er attributeBoxOdd"/><text style="dominant-baseline: middle; font-size: 10.2px;" transform="translate(59.113128662109375,78.5)" y="0" x="0" id="text-entity-menu-5e57509b-aadb-550d-8ad8-8716db7f27f7-attr-3-name" class="er entityLabel">createdAt</text><rect height="21" width="23" y="68" x="110.73333740234375" class="er attributeBoxOdd"/><text style="dominant-baseline: middle; font-size: 10.2px;" transform="translate(115.73333740234375,78.5)" y="0" x="0" id="text-entity-menu-5e57509b-aadb-550d-8ad8-8716db7f27f7-attr-3-comment" class="er entityLabel"/><rect height="21" width="54.113128662109375" y="89" x="0" class="er attributeBoxEven"/><text style="dominant-baseline: middle; font-size: 10.2px;" transform="translate(5,99.5)" y="0" x="0" id="text-entity-menu-5e57509b-aadb-550d-8ad8-8716db7f27f7-attr-4-type" class="er entityLabel">DateTime</text><rect height="21" width="56.620208740234375" y="89" x="54.113128662109375" class="er attributeBoxEven"/><text style="dominant-baseline: middle; font-size: 10.2px;" transform="translate(59.113128662109375,99.5)" y="0" x="0" id="text-entity-menu-5e57509b-aadb-550d-8ad8-8716db7f27f7-attr-4-name" class="er entityLabel">updatedAt</text><rect height="21" width="23" y="89" x="110.73333740234375" class="er attributeBoxEven"/><text style="dominant-baseline: middle; font-size: 10.2px;" transform="translate(115.73333740234375,99.5)" y="0" x="0" id="text-entity-menu-5e57509b-aadb-550d-8ad8-8716db7f27f7-attr-4-comment" class="er entityLabel"/></g><rect height="14" width="55.375" y="210.6722869873047" x="45.080848693847656" class="er relationshipLabelBox"/><text style="text-anchor: middle; dominant-baseline: middle; font-size: 12px;" y="217.6722869873047" x="72.76834869384766" id="rel1" class="er relationshipLabel">categories</text><rect height="14" width="36.03125" y="237.7958984375" x="238.88174438476562" class="er relationshipLabelBox"/><text style="text-anchor: middle; dominant-baseline: middle; font-size: 12px;" y="244.7958984375" x="256.8973693847656" id="rel2" class="er relationshipLabel">menus</text><rect height="14" width="46.03125" y="237.79591369628906" x="127.55366516113281" class="er relationshipLabelBox"/><text style="text-anchor: middle; dominant-baseline: middle; font-size: 12px;" y="244.79591369628906" x="150.5692901611328" id="rel3" class="er relationshipLabel">products</text><rect height="14" width="66.71875" y="446" x="287.2406311035156" class="er relationshipLabelBox"/><text style="text-anchor: middle; dominant-baseline: middle; font-size: 12px;" y="453" x="320.6000061035156" id="rel4" class="er relationshipLabel">enum:period</text><rect height="14" width="40.69140625" y="210.67230224609375" x="314.35260009765625" class="er relationshipLabelBox"/><text style="text-anchor: middle; dominant-baseline: middle; font-size: 12px;" y="217.67230224609375" x="334.69830322265625" id="rel5" class="er relationshipLabel">product</text></svg>